<svg width="130" height="26" viewBox="0 0 130 26" fill="none" xmlns="http://www.w3.org/2000/svg">
<path d="M9.61903 20.5972C8.56906 20.6047 7.52418 20.4505 6.5211 20.1402C5.58027 19.8473 4.69268 19.4051 3.89231 18.8304C3.10978 18.2683 2.42009 17.5871 1.84822 16.8116C1.26754 16.0227 0.8213 15.1431 0.52775 14.2085C0.216501 13.2093 0.0623457 12.1678 0.0707614 11.1214C0.062546 10.0705 0.220443 9.02496 0.538505 8.02342C0.841672 7.07859 1.29171 6.18732 1.87207 5.38248C2.44166 4.59293 3.1369 3.90224 3.93018 3.33792C4.7377 2.76511 5.62843 2.31981 6.57113 2.01745C7.57274 1.69958 8.61829 1.54172 9.66906 1.54969C10.8676 1.5376 12.0586 1.73957 13.1861 2.14609C14.2323 2.5266 15.1911 3.11397 16.0053 3.87305C16.8221 4.6445 17.4745 5.57323 17.9231 6.6033L13.6062 7.84709C13.2367 7.1415 12.6784 6.55267 11.9933 6.14631C11.2853 5.74669 10.4828 5.54492 9.66999 5.56208C8.9801 5.55433 8.29629 5.69286 7.66384 5.96858C7.06077 6.23467 6.52003 6.62393 6.07627 7.11131C5.61781 7.61973 5.26074 8.21117 5.0243 8.85371C4.76415 9.55709 4.63504 10.3022 4.64352 11.0522C4.63464 11.814 4.76368 12.5711 5.0243 13.2871C5.26194 13.938 5.62903 14.5341 6.10339 15.0393C6.56879 15.5303 7.13104 15.9194 7.75454 16.182C8.41785 16.4585 9.13058 16.5969 9.8492 16.5885C10.541 16.5986 11.2278 16.4692 11.8684 16.2077C12.4457 15.9708 12.9557 15.5956 13.3536 15.115C13.7452 14.6365 14.0153 14.0703 14.1408 13.4648H10.0522V9.90989H18.6865V11.968C18.7011 13.1602 18.4765 14.3432 18.026 15.4472C17.598 16.479 16.9576 17.4093 16.1466 18.1774C15.3144 18.9602 14.3343 19.569 13.2638 19.968C12.0977 20.3992 10.8622 20.6124 9.61903 20.5972Z" fill="black"/>
<path d="M20.8699 20.0896V6.55373H24.6793L24.8318 8.71291C25.1103 8.02262 25.5769 7.42436 26.1784 6.98594C26.7658 6.57604 27.4681 6.36311 28.1842 6.37787C28.4053 6.378 28.6261 6.39504 28.8447 6.42883C29.0474 6.45735 29.2445 6.51733 29.4289 6.60656L29.0233 10.72C28.8384 10.6527 28.6468 10.6057 28.4517 10.5797C28.2538 10.5542 28.0545 10.5415 27.8549 10.5418C27.4626 10.5122 27.0685 10.5684 26.7002 10.7066C26.3318 10.8447 25.998 11.0614 25.7219 11.3417C25.2061 12.0019 24.9528 12.8297 25.0109 13.6654V20.0905L20.8699 20.0896Z" fill="black"/>
<path d="M37.5793 20.4704C36.6101 20.4786 35.6477 20.2968 34.748 19.9352C33.895 19.5924 33.1183 19.0836 32.463 18.4384C31.8105 17.7956 31.2955 17.0268 30.9495 16.1787C30.5882 15.2834 30.4065 14.3255 30.4165 13.36C30.4072 12.389 30.5929 11.4262 30.9629 10.5282C31.3149 9.67263 31.8332 8.89538 32.4877 8.24135C33.1483 7.58346 33.9338 7.06508 34.7987 6.71697C35.7144 6.34814 36.6936 6.16266 37.6808 6.17108C38.6499 6.16233 39.6124 6.34347 40.5121 6.70434C41.3684 7.04919 42.1451 7.56322 42.7977 8.21564C43.4476 8.86479 43.9619 9.63737 44.3085 10.488C44.6705 11.3832 44.8515 12.3412 44.8422 13.3067C44.8502 14.2775 44.6645 15.2403 44.2958 16.1385C43.9452 16.9901 43.4269 17.7628 42.7723 18.4108C42.1091 19.0617 41.3243 19.5752 40.462 19.9217C39.5463 20.2917 38.5671 20.4781 37.5793 20.4704ZM37.6307 16.7367C38.171 16.7424 38.7014 16.588 39.1542 16.2928C39.6164 15.9907 39.9898 15.5697 40.2336 15.0739C40.5014 14.5338 40.6363 13.9375 40.627 13.3348C40.6383 12.7234 40.5034 12.1182 40.2336 11.5694C39.9891 11.0739 39.6164 10.6529 39.1542 10.3504C38.7007 10.0558 38.171 9.90139 37.6307 9.90654C37.0904 9.90139 36.56 10.0558 36.1072 10.3504C35.6443 10.6526 35.2716 11.0737 35.0278 11.5694C34.758 12.1181 34.6231 12.7233 34.6338 13.3348C34.6244 13.9375 34.7593 14.5339 35.0278 15.0739C35.2716 15.5699 35.6443 15.991 36.1072 16.2928C36.56 16.588 37.0897 16.7424 37.6307 16.7367Z" fill="black"/>
<path d="M53.8063 20.4703C52.8365 20.4786 51.8747 20.2968 50.975 19.9352C50.1214 19.5925 49.3447 19.0837 48.6894 18.4384C48.0375 17.7953 47.5239 17.0263 47.1786 16.1782C46.8166 15.2829 46.6356 14.325 46.6449 13.3595C46.6363 12.3886 46.8219 11.4257 47.1913 10.5277C47.5433 9.6725 48.0609 8.89538 48.7148 8.24136C49.3754 7.58346 50.1608 7.06502 51.0258 6.71691C51.9415 6.34808 52.9207 6.1626 53.9072 6.17109C54.8777 6.1628 55.8401 6.34461 56.7405 6.70615C57.5954 7.05113 58.3729 7.56516 59.0254 8.21752C59.6753 8.8668 60.189 9.63938 60.5363 10.4898C60.8976 11.3851 61.0793 12.343 61.0693 13.3085C61.0779 14.2794 60.8923 15.2422 60.5236 16.1403C60.1722 16.9921 59.6546 17.7648 59.0001 18.4131C58.3368 19.064 57.5513 19.5775 56.6891 19.924C55.7734 20.2933 54.7942 20.4789 53.8063 20.4703ZM53.8571 16.7367C54.3981 16.7424 54.9278 16.5879 55.3806 16.2928C55.8435 15.9904 56.2162 15.5692 56.4593 15.0733C56.7271 14.5332 56.8621 13.937 56.8527 13.3342C56.8641 12.7229 56.7291 12.1178 56.4593 11.5689C56.2155 11.0733 55.8422 10.6523 55.38 10.35C54.9271 10.0554 54.3968 9.90093 53.8564 9.90607C53.3161 9.90093 52.7864 10.0554 52.3329 10.35C51.8707 10.6521 51.498 11.0731 51.2542 11.5689C50.9837 12.1175 50.8488 12.7228 50.8602 13.3342C50.8508 13.9371 50.9857 14.5335 51.2542 15.0733C51.4974 15.5694 51.87 15.9905 52.3329 16.2924C52.7858 16.5878 53.3168 16.7424 53.8571 16.7367Z" fill="black"/>
<path d="M66.1227 20.0892L61.6537 6.55333H65.9704L68.1031 15.1132L70.541 6.55333H74.1985L76.6364 15.16L78.8452 6.55333H83.0083L78.5406 20.0892H74.7054L72.3197 11.6074L69.9071 20.0892H66.1227Z" fill="black"/>
<path d="M90.3755 20.4705C89.4397 20.4793 88.512 20.3025 87.645 19.9503C86.8242 19.6141 86.0808 19.1126 85.4616 18.4769C84.8378 17.833 84.3455 17.0731 84.0142 16.2401C83.6596 15.3474 83.4826 14.3941 83.4933 13.4336C83.4832 12.4515 83.6649 11.4769 84.0269 10.5639C84.3669 9.70836 84.8665 8.92503 85.4983 8.25557C86.1248 7.59534 86.8816 7.07216 87.7205 6.71897C88.5921 6.35188 89.5299 6.16613 90.4757 6.17308C91.4515 6.16085 92.4186 6.36016 93.3096 6.7573C94.1472 7.13334 94.8859 7.6984 95.4683 8.40806C96.0614 9.13976 96.4742 10.0009 96.6733 10.9218L92.6611 11.5822C92.4707 11.0976 92.1548 10.6724 91.746 10.3502C91.36 10.0555 90.8864 9.89918 90.4009 9.90626C89.9033 9.89758 89.4163 10.0536 89.0169 10.3502C88.5988 10.6722 88.2702 11.0965 88.0638 11.5822C87.82 12.1424 87.6985 12.7486 87.7085 13.3597C87.6971 13.9614 87.814 14.5586 88.0518 15.1114C88.2548 15.5884 88.5841 16.0011 89.0036 16.3056C89.4117 16.5938 89.9013 16.7449 90.4009 16.7368C90.9118 16.7411 91.4114 16.5908 91.8355 16.3056C92.2784 16.004 92.6123 15.5677 92.7873 15.0614L96.8002 15.7218C96.6546 16.4167 96.3747 17.0765 95.976 17.664C95.5805 18.2453 95.0903 18.7562 94.5259 19.1753C93.9468 19.6045 93.2983 19.9309 92.6083 20.1403C91.885 20.3618 91.1322 20.473 90.3755 20.4705Z" fill="black"/>
<path d="M103.073 2.99874C103.079 3.39888 102.978 3.79336 102.781 4.14147C102.584 4.48224 102.298 4.76297 101.954 4.95353C101.591 5.15925 101.179 5.26464 100.761 5.25897C100.347 5.26585 99.9386 5.16025 99.58 4.95353C99.242 4.76003 98.9615 4.47971 98.7678 4.14147C98.5701 3.79342 98.4692 3.39888 98.4752 2.99874C98.4692 2.59859 98.5701 2.20405 98.7678 1.85604C98.9615 1.51788 99.242 1.23745 99.5806 1.04354C99.9393 0.836936 100.347 0.731533 100.762 0.738566C101.179 0.732815 101.591 0.838058 101.954 1.04354C102.298 1.23465 102.584 1.51547 102.78 1.85604C102.977 2.20418 103.079 2.59859 103.073 2.99874ZM98.705 20.0896V6.55325H102.843V20.0891L98.705 20.0896Z" fill="black"/>
<path d="M111.605 20.4727C110.082 20.4727 108.909 20.0536 108.088 19.2154C107.267 18.3771 106.856 17.171 106.856 15.5968V9.93186H104.621V6.55373H106.856V1.9323H110.995V6.55373H114.475V9.93186H110.995V15.087C110.963 15.5702 111.098 16.05 111.376 16.4458C111.522 16.6087 111.703 16.7357 111.906 16.8169C112.109 16.898 112.328 16.9311 112.546 16.9135C112.842 16.9101 113.135 16.8718 113.421 16.7994C113.732 16.724 114.034 16.6176 114.323 16.4818L114.957 19.6307C114.481 19.8823 113.978 20.0823 113.46 20.2271C112.856 20.3954 112.232 20.4781 111.605 20.4727Z" fill="black"/>
<path d="M119.477 25.32C119.007 25.3222 118.539 25.2712 118.081 25.168C117.645 25.0679 117.226 24.9053 116.838 24.6853L117.574 21.5111C117.791 21.6066 118.016 21.6833 118.247 21.7403C118.491 21.8056 118.743 21.8397 118.995 21.8418C119.43 21.8488 119.853 21.6994 120.188 21.4208C120.58 21.0627 120.877 20.6126 121.052 20.1111L121.153 19.8819L115.744 6.55086H120.29L123.083 15.4382L125.571 6.55086H129.964L124.581 21.0513C124.183 22.2854 123.474 23.3962 122.522 24.2764C121.666 24.9802 120.585 25.3508 119.477 25.32Z" fill="black"/>
</svg>
